<mxfile host="65bd71144e">
    <diagram id="uIPDakf9JzzMNFOgYcjH" name="Page-1">
        <mxGraphModel dx="1685" dy="714" grid="1" gridSize="10" guides="1" tooltips="1" connect="1" arrows="1" fold="1" page="1" pageScale="1" pageWidth="800" pageHeight="500" math="0" shadow="0">
            <root>
                <mxCell id="0"/>
                <mxCell id="1" parent="0"/>
                <mxCell id="2" value="NodeJs Runtime" style="swimlane;whiteSpace=wrap;html=1;" vertex="1" parent="1">
                    <mxGeometry x="20" y="20" width="760" height="440" as="geometry"/>
                </mxCell>
                <mxCell id="3" value="Google's V8 Engine" style="swimlane;whiteSpace=wrap;html=1;" vertex="1" parent="2">
                    <mxGeometry x="20" y="40" width="350" height="260" as="geometry"/>
                </mxCell>
                <mxCell id="4" value="libuv" style="swimlane;whiteSpace=wrap;html=1;" vertex="1" parent="2">
                    <mxGeometry x="390" y="40" width="350" height="260" as="geometry"/>
                </mxCell>
                <mxCell id="6" value="Event loop" style="swimlane;whiteSpace=wrap;html=1;" vertex="1" parent="4">
                    <mxGeometry x="20" y="70" width="140" height="135" as="geometry"/>
                </mxCell>
                <mxCell id="7" value="Thread Pool" style="swimlane;whiteSpace=wrap;html=1;" vertex="1" parent="4">
                    <mxGeometry x="190" y="70" width="140" height="135" as="geometry"/>
                </mxCell>
                <mxCell id="8" value="&lt;font style=&quot;font-size: 10px;&quot;&gt;Thread #1&lt;/font&gt;" style="rounded=0;whiteSpace=wrap;html=1;" vertex="1" parent="7">
                    <mxGeometry x="20" y="37.5" width="40" height="32.5" as="geometry"/>
                </mxCell>
                <mxCell id="9" value="#2" style="rounded=0;whiteSpace=wrap;html=1;" vertex="1" parent="7">
                    <mxGeometry x="80" y="37.5" width="40" height="32.5" as="geometry"/>
                </mxCell>
                <mxCell id="10" value="#3" style="rounded=0;whiteSpace=wrap;html=1;" vertex="1" parent="7">
                    <mxGeometry x="20" y="85" width="40" height="32.5" as="geometry"/>
                </mxCell>
                <mxCell id="11" value="#4" style="rounded=0;whiteSpace=wrap;html=1;" vertex="1" parent="7">
                    <mxGeometry x="80" y="85" width="40" height="32.5" as="geometry"/>
                </mxCell>
                <mxCell id="23" value="OpenSSL" style="rounded=0;whiteSpace=wrap;html=1;fontSize=10;" vertex="1" parent="2">
                    <mxGeometry x="390" y="340" width="160" height="60" as="geometry"/>
                </mxCell>
                <mxCell id="25" value="zlib" style="rounded=0;whiteSpace=wrap;html=1;fontSize=10;" vertex="1" parent="2">
                    <mxGeometry x="580" y="340" width="160" height="60" as="geometry"/>
                </mxCell>
                <mxCell id="26" value="http-parser" style="rounded=0;whiteSpace=wrap;html=1;fontSize=10;" vertex="1" parent="2">
                    <mxGeometry x="20" y="340" width="160" height="60" as="geometry"/>
                </mxCell>
                <mxCell id="27" value="c-ares" style="rounded=0;whiteSpace=wrap;html=1;fontSize=10;" vertex="1" parent="2">
                    <mxGeometry x="210" y="340" width="160" height="60" as="geometry"/>
                </mxCell>
            </root>
        </mxGraphModel>
    </diagram>
</mxfile>